<svg width="58" height="58" viewBox="0 0 58 58" fill="none" xmlns="http://www.w3.org/2000/svg">
<g filter="url(#filter0_dd_1_57)">
<path d="M5 9C5 4.58172 8.58172 1 13 1H45C49.4183 1 53 4.58172 53 9V41C53 45.4183 49.4183 49 45 49H13C8.58172 49 5 45.4183 5 41V9Z" fill="url(#paint0_linear_1_57)" shape-rendering="crispEdges"/>
<path d="M33 34V32C33 30.9391 32.5786 29.9217 31.8284 29.1716C31.0783 28.4214 30.0609 28 29 28H23C21.9391 28 20.9217 28.4214 20.1716 29.1716C19.4214 29.9217 19 30.9391 19 32V34" stroke="white" stroke-width="2" stroke-linecap="round" stroke-linejoin="round"/>
<path d="M26 24C28.2091 24 30 22.2091 30 20C30 17.7909 28.2091 16 26 16C23.7909 16 22 17.7909 22 20C22 22.2091 23.7909 24 26 24Z" stroke="white" stroke-width="2" stroke-linecap="round" stroke-linejoin="round"/>
<path d="M39 34V32C38.9993 31.1137 38.7044 30.2528 38.1614 29.5523C37.6184 28.8519 36.8581 28.3516 36 28.13" stroke="white" stroke-width="2" stroke-linecap="round" stroke-linejoin="round"/>
<path d="M33 16.13C33.8604 16.3503 34.623 16.8507 35.1676 17.5523C35.7122 18.2539 36.0078 19.1168 36.0078 20.005C36.0078 20.8932 35.7122 21.7561 35.1676 22.4577C34.623 23.1593 33.8604 23.6597 33 23.88" stroke="white" stroke-width="2" stroke-linecap="round" stroke-linejoin="round"/>
</g>
<defs>
<filter id="filter0_dd_1_57" x="0" y="0" width="58" height="58" filterUnits="userSpaceOnUse" color-interpolation-filters="sRGB">
<feFlood flood-opacity="0" result="BackgroundImageFix"/>
<feColorMatrix in="SourceAlpha" type="matrix" values="0 0 0 0 0 0 0 0 0 0 0 0 0 0 0 0 0 0 127 0" result="hardAlpha"/>
<feMorphology radius="2" operator="erode" in="SourceAlpha" result="effect1_dropShadow_1_57"/>
<feOffset dy="2"/>
<feGaussianBlur stdDeviation="2"/>
<feComposite in2="hardAlpha" operator="out"/>
<feColorMatrix type="matrix" values="0 0 0 0 0 0 0 0 0 0 0 0 0 0 0 0 0 0 0.1 0"/>
<feBlend mode="normal" in2="BackgroundImageFix" result="effect1_dropShadow_1_57"/>
<feColorMatrix in="SourceAlpha" type="matrix" values="0 0 0 0 0 0 0 0 0 0 0 0 0 0 0 0 0 0 127 0" result="hardAlpha"/>
<feMorphology radius="1" operator="erode" in="SourceAlpha" result="effect2_dropShadow_1_57"/>
<feOffset dy="4"/>
<feGaussianBlur stdDeviation="3"/>
<feComposite in2="hardAlpha" operator="out"/>
<feColorMatrix type="matrix" values="0 0 0 0 0 0 0 0 0 0 0 0 0 0 0 0 0 0 0.1 0"/>
<feBlend mode="normal" in2="effect1_dropShadow_1_57" result="effect2_dropShadow_1_57"/>
<feBlend mode="normal" in="SourceGraphic" in2="effect2_dropShadow_1_57" result="shape"/>
</filter>
<linearGradient id="paint0_linear_1_57" x1="5" y1="1" x2="53" y2="49" gradientUnits="userSpaceOnUse">
<stop stop-color="#003D82"/>
<stop offset="0.0909091" stop-color="#003F86"/>
<stop offset="0.181818" stop-color="#00418B"/>
<stop offset="0.272727" stop-color="#00448F"/>
<stop offset="0.363636" stop-color="#004693"/>
<stop offset="0.454545" stop-color="#004898"/>
<stop offset="0.545455" stop-color="#004A9C"/>
<stop offset="0.636364" stop-color="#004DA1"/>
<stop offset="0.727273" stop-color="#004FA5"/>
<stop offset="0.818182" stop-color="#0051AA"/>
<stop offset="0.909091" stop-color="#0054AE"/>
<stop offset="1" stop-color="#0056B3"/>
</linearGradient>
</defs>
</svg>
