<svg width="58" height="58" viewBox="0 0 58 58" fill="none" xmlns="http://www.w3.org/2000/svg">
<g filter="url(#filter0_dd_1_90)">
<path d="M5 9C5 4.58172 8.58172 1 13 1H45C49.4183 1 53 4.58172 53 9V41C53 45.4183 49.4183 49 45 49H13C8.58172 49 5 45.4183 5 41V9Z" fill="url(#paint0_linear_1_90)" shape-rendering="crispEdges"/>
<path d="M25 15V19" stroke="white" stroke-width="2" stroke-linecap="round" stroke-linejoin="round"/>
<path d="M33 15V19" stroke="white" stroke-width="2" stroke-linecap="round" stroke-linejoin="round"/>
<path d="M36 17H22C20.8954 17 20 17.8954 20 19V33C20 34.1046 20.8954 35 22 35H36C37.1046 35 38 34.1046 38 33V19C38 17.8954 37.1046 17 36 17Z" stroke="white" stroke-width="2" stroke-linecap="round" stroke-linejoin="round"/>
<path d="M20 23H38" stroke="white" stroke-width="2" stroke-linecap="round" stroke-linejoin="round"/>
</g>
<defs>
<filter id="filter0_dd_1_90" x="0" y="0" width="58" height="58" filterUnits="userSpaceOnUse" color-interpolation-filters="sRGB">
<feFlood flood-opacity="0" result="BackgroundImageFix"/>
<feColorMatrix in="SourceAlpha" type="matrix" values="0 0 0 0 0 0 0 0 0 0 0 0 0 0 0 0 0 0 127 0" result="hardAlpha"/>
<feMorphology radius="2" operator="erode" in="SourceAlpha" result="effect1_dropShadow_1_90"/>
<feOffset dy="2"/>
<feGaussianBlur stdDeviation="2"/>
<feComposite in2="hardAlpha" operator="out"/>
<feColorMatrix type="matrix" values="0 0 0 0 0 0 0 0 0 0 0 0 0 0 0 0 0 0 0.1 0"/>
<feBlend mode="normal" in2="BackgroundImageFix" result="effect1_dropShadow_1_90"/>
<feColorMatrix in="SourceAlpha" type="matrix" values="0 0 0 0 0 0 0 0 0 0 0 0 0 0 0 0 0 0 127 0" result="hardAlpha"/>
<feMorphology radius="1" operator="erode" in="SourceAlpha" result="effect2_dropShadow_1_90"/>
<feOffset dy="4"/>
<feGaussianBlur stdDeviation="3"/>
<feComposite in2="hardAlpha" operator="out"/>
<feColorMatrix type="matrix" values="0 0 0 0 0 0 0 0 0 0 0 0 0 0 0 0 0 0 0.1 0"/>
<feBlend mode="normal" in2="effect1_dropShadow_1_90" result="effect2_dropShadow_1_90"/>
<feBlend mode="normal" in="SourceGraphic" in2="effect2_dropShadow_1_90" result="shape"/>
</filter>
<linearGradient id="paint0_linear_1_90" x1="5" y1="1" x2="53" y2="49" gradientUnits="userSpaceOnUse">
<stop stop-color="#D4AF37"/>
<stop offset="0.1" stop-color="#D7B238"/>
<stop offset="0.2" stop-color="#DAB639"/>
<stop offset="0.3" stop-color="#DEB939"/>
<stop offset="0.4" stop-color="#E1BC3A"/>
<stop offset="0.5" stop-color="#E4BF3B"/>
<stop offset="0.6" stop-color="#E7C33C"/>
<stop offset="0.7" stop-color="#EAC63D"/>
<stop offset="0.8" stop-color="#EEC93D"/>
<stop offset="0.9" stop-color="#F1CD3E"/>
<stop offset="1" stop-color="#F4D03F"/>
</linearGradient>
</defs>
</svg>
